PathFileType	4	(X/Y/Z)	OpenSim_Sub09_EMGBaseline_Gyro.trc
DataRate	CameraRate	NumFrames	NumMarkers	Units	OrigDataRate	OrigDataStartFrame	OrigNumFrames
100	100	27	8	m	100	1826	7301
Frame#	Time	torso_imu_offset_imu	pelvis_imu_offset_imu	tibia_r_imu_offset_imu	femur_r_imu_offset_imu	tibia_l_imu_offset_imu	femur_l_imu_offset_imu	toes_r_imu_offset_imu	toes_l_imu_offset_imu
				X1	Y1	Z1	X2	Y2	Z2	X3	Y3	Z3	X4	Y4	Z4	X5	Y5	Z5	X6	Y6	Z6	X7	Y7	Z7	X8		Y8	Z8	

1826	18.25000000	0.09530700	0.09345200	-0.04631100	-0.15097200	-0.08323200	-0.06141400	-0.23063700	-0.05753900	-1.42529100	0.11366200	0.12623800	-0.34215700	0.10551800	0.11358600	0.83245200	-0.14716300	0.12852400	-0.66822300	0.14222100	-0.51165600	-0.41497400	0.89867500	-0.37961000	0.89428200
1827	18.26000000	0.07967100	0.11775200	-0.04769200	-0.20725900	-0.14653600	-0.05198700	-0.28523900	-0.06494400	-1.48062700	0.02295200	0.16097900	-0.33395800	0.06651700	0.21237200	0.95112000	-0.17421800	0.09600000	-0.72015700	0.17893700	-0.67395300	-0.42106500	0.35833000	-0.54388800	1.24441900
1828	18.27000000	0.05972400	0.14714300	-0.05428400	-0.26549700	-0.18992800	-0.03942800	-0.42242800	-0.04230100	-1.55597100	-0.12596400	0.19905200	-0.30828700	0.00045300	-0.03240900	1.11051100	-0.20548100	-0.06315500	-0.70750400	0.06652800	-0.80354000	-0.41364400	-2.57589300	-2.13509100	2.00320700
1829	18.28000000	0.03115500	0.18957300	-0.04811900	-0.34601500	-0.23678600	-0.05488100	-0.49089800	0.05667500	-1.63348800	-0.27531800	0.25104500	-0.26733100	-0.33532600	-0.49862200	1.29911600	-0.31232100	-0.29480100	-0.58895100	0.10868500	-0.98369900	-0.40617700	-2.12579200	-2.02870700	2.29248200
1830	18.29000000	-0.00792700	0.22343800	-0.05116100	-0.39127400	-0.30362000	-0.08985100	-0.38983500	0.14282800	-1.69959300	-0.40525000	0.32771000	-0.24406600	-0.58776200	-1.01048000	1.31755300	-0.39740300	-0.50093900	-0.36048100	-0.00001900	-1.14614800	-0.37024700	-2.15318800	-2.37451300	2.06820900
1831	18.30000000	-0.05539900	0.25468300	-0.05245300	-0.42237200	-0.32872400	-0.14493100	-0.35845600	0.12322500	-1.76471500	-0.48747100	0.38053300	-0.22684100	-0.41358700	-1.33243000	1.44713200	-0.41395400	-0.64441000	-0.08732900	-0.05247100	-1.33768100	-0.34192200	-1.93489800	-2.64541100	1.44793400
1832	18.31000000	-0.08627000	0.27365200	-0.05582700	-0.41324400	-0.34174300	-0.21662700	-0.33284100	0.14586400	-1.85310800	-0.44255800	0.42075800	-0.20955800	-0.19971500	-1.57658000	1.44179400	-0.36314300	-0.76699700	0.18755300	-0.11284900	-1.55328700	-0.34059200	-1.25512400	-2.84797000	0.75445300
1833	18.32000000	-0.11380800	0.28229100	-0.05033000	-0.36708200	-0.35381400	-0.27379500	-0.27827400	0.16901100	-1.92583400	-0.38701000	0.45363400	-0.15562900	0.81401500	-1.87348000	0.98620500	-0.22426600	-0.82778300	0.44042600	-0.19406100	-1.77941300	-0.35164300	-0.97860000	-2.98457500	0.50739400
1834	18.33000000	-0.13136400	0.28725900	-0.04379800	-0.30421900	-0.33131000	-0.33599200	-0.30653300	0.13220500	-1.97401700	-0.28965600	0.48280800	-0.08294200	1.68961000	-1.61360100	0.51999100	0.00368200	-0.85427800	0.65905800	-0.26800200	-2.03384500	-0.37475000	-0.58035000	-2.68496200	0.60629200
1835	18.34000000	-0.12815900	0.28293400	-0.03201200	-0.19989700	-0.27156000	-0.39977200	-0.37452400	0.07726200	-2.03301300	-0.21881500	0.51916400	0.01151600	1.05541400	-0.67231800	0.62569800	0.27064600	-0.94715800	0.79153800	-0.35839400	-2.29363900	-0.40686400	-0.18204600	-2.33192300	0.77790800
1836	18.35000000	-0.10940500	0.27031500	-0.01480600	-0.07662200	-0.22911700	-0.42885100	-0.44223800	-0.02772900	-2.13248000	-0.16602000	0.58145400	0.12263300	-0.22053700	0.09584300	1.17264800	0.54508000	-0.86692400	0.71776900	-0.38736800	-2.61685500	-0.49044200	-0.00949200	-2.12352600	0.69706900
1837	18.36000000	-0.08139800	0.25825600	0.00370900	0.05494100	-0.20364600	-0.40320900	-0.50219800	-0.18765400	-2.24666700	-0.09519600	0.67723100	0.22931700	-1.46909900	0.20952200	1.80602000	0.84920300	-0.47003200	0.38598200	-0.35151300	-2.97245200	-0.60562600	0.11405200	-2.12083000	0.41196700
1838	18.37000000	-0.05286600	0.25655000	0.02013100	0.16101800	-0.19193100	-0.35412600	-0.54819900	-0.32537000	-2.32927600	-0.08859000	0.77274400	0.37822900	-2.23760900	0.15137000	2.04736100	1.25808900	-0.12147300	-0.01260600	-0.28410700	-3.36808600	-0.75928200	0.04992300	-2.07250100	0.22767800
1839	18.38000000	-0.01951100	0.25836400	0.02950600	0.21620800	-0.16479000	-0.23660100	-0.60171100	-0.43093200	-2.40127400	-0.18788900	0.92475900	0.53954100	-2.65782100	0.24366500	1.89267200	1.50299100	-0.27477500	-0.34793900	-0.17830200	-3.81753500	-0.93908300	-0.63233400	-0.84815600	0.16908200
1840	18.39000000	-0.00085000	0.25339000	0.04447200	0.21128700	-0.09935400	-0.10956900	-0.59756000	-0.51587700	-2.46036700	-0.30219500	1.14171800	0.69786100	-3.32419000	0.50511300	1.76332500	1.16449700	-0.57912900	-0.42105200	0.00593700	-4.40411100	-1.14175300	-0.28320500	-0.85204700	0.25074400
1841	18.40000000	-0.00903700	0.23215800	0.05957400	0.12307800	-0.07982800	0.01386500	-0.52684600	-0.55347300	-2.50307500	-0.28471200	1.28232800	0.84873600	-3.71031700	0.74814000	1.78156000	0.61682500	-0.51318500	-0.26946700	-0.05953700	-5.01114400	-1.26088100	-0.43107600	-0.69557600	0.18823800
1842	18.41000000	-0.02528100	0.21629200	0.06685400	-0.03356300	-0.05896900	0.11042300	-0.41810400	-0.54954300	-2.54110200	-0.22794900	1.33004500	1.00435200	-3.47829200	0.69800200	1.62148800	0.49260700	-0.39765600	-0.07942200	0.04842800	-5.47734800	-1.37519800	-0.49310500	-0.54151200	0.17564400
1843	18.42000000	-0.03786600	0.19914700	0.07515900	-0.22531700	-0.03536700	0.15820900	-0.28291200	-0.42366800	-2.54310400	-0.18059400	1.32769000	1.17276200	-2.94606100	0.23210200	1.27424000	0.43036900	-0.34934100	0.12462700	-0.09139400	-5.66060900	-1.42561400	-0.36371500	-0.32544900	0.07150200
1844	18.43000000	-0.06984900	0.16285700	0.08122800	-0.40728900	-0.00883600	0.16817800	-0.05510200	-0.21102500	-2.51532700	-0.09598500	1.26173400	1.32236100	-2.29796400	-0.46645100	1.13210000	0.35495000	-0.32593600	0.33365000	-0.59525600	-5.31290600	-1.50839300	-0.28384600	-0.21148100	0.06434600
1845	18.44000000	-0.10989400	0.11072100	0.08129700	-0.54553700	0.02885000	0.13760800	0.24734100	-0.12585100	-2.46384700	-0.06288600	1.10637500	1.44141200	-1.23766800	-0.98104700	1.21057700	0.42241100	-0.24699600	0.52424700	-0.24958900	-4.85142700	-1.81479800	-0.29735500	-0.13600300	0.08050300
1846	18.45000000	-0.19373700	0.05853200	0.08282700	-0.59399800	0.07093400	0.06639100	0.59983000	-0.23150600	-2.39157000	-0.19184100	0.99386500	1.53145600	-0.07740700	-0.97081100	1.20260400	0.52249200	-0.22025700	0.72124100	0.50572300	-4.61115900	-2.25655100	-0.27247800	-0.08460500	0.09340600
1847	18.46000000	-0.26483200	0.00890300	0.07791600	-0.60049600	0.11533600	0.00653400	1.13343500	-0.29117300	-2.28535400	-0.41684600	0.95120400	1.61009000	0.95480400	-0.99059700	0.95738500	0.53577400	-0.29946100	0.96380000	0.48215100	-4.52563500	-2.50823800	-0.20989500	-0.05849900	0.09946200
1848	18.47000000	-0.31573200	-0.03427900	0.06461300	-0.57646100	0.15213200	-0.04101500	1.59768100	-0.27828300	-2.15119700	-0.60597600	0.91083300	1.66993600	1.95358600	-0.92207100	0.65620200	0.52556700	-0.37649300	1.12180100	0.15342600	-4.16179900	-2.49384400	-0.18665800	-0.01672600	0.10480900
1849	18.48000000	-0.33420000	-0.06869300	0.04388300	-0.53625400	0.16108200	-0.06513900	1.88781700	-0.33427200	-1.96482800	-0.75472500	0.83297200	1.67105600	2.61719200	-0.43117800	0.45303700	0.47312900	-0.39354900	1.14656800	-0.17408500	-3.49016900	-2.38189800	-0.16791000	-0.01636900	0.10776900
1850	18.49000000	-0.34857100	-0.08932800	0.01919100	-0.49408600	0.15140300	-0.06336400	1.99762600	-0.49918800	-1.71988100	-0.85016700	0.73405400	1.63634600	3.06902200	-0.15011700	0.43735700	0.34378900	-0.37413800	1.10650600	-0.41640300	-3.03750500	-2.26740700	-0.12684900	-0.00772100	0.08996700
1851	18.50000000	-0.36195600	-0.08424100	-0.00823300	-0.44408600	0.11909000	-0.04351200	1.70674700	-0.55507500	-1.44925600	-0.88771800	0.66897000	1.61284500	2.87925000	-0.14892400	0.60680900	0.21391000	-0.33862000	1.04098700	-0.59312000	-2.05838700	-1.85148100	-0.11572000	0.00185300	0.08034700
1852	18.51000000	-0.36067700	-0.08565900	-0.03740200	-0.37054800	0.06345700	0.00283700	1.31085000	-0.43023000	-1.24288400	-0.81133000	0.63192000	1.60235900	2.03074700	-0.18906200	0.82631500	0.09268400	-0.29319600	0.95656600	-1.06834500	-0.54074700	-1.46306500	-0.09484800	0.00801500	0.06400400
